# xmcd
#
# Track frame offsets:
#	150
#	14718
#	33112
#	43021
#	61132
#	78965
#	88445
#	102143
#	121406
#	144454
#
# Disc length: 2137 seconds
#
# Revision: 0
# Processed by: cddbd v1.5.2PL0 Copyright (c) Steve Scherf et al.
# Submitted via: EasyCDDAExtractor 10.2.0.1
#
DISCID=7f08570a
DTITLE=Various Artist - Wyndstar-Tis The Season
DYEAR=1998
DGENRE=Christmas
TTITLE0=New Ground - Beautiful Star
TTITLE1=One Voice - Have Youself A Merry Christmas
TTITLE2=The Believers - Momma There's A Baby
TTITLE3=The Kelleys - Unwrap The Gift
TTITLE4=The Premiers - Chestnuts Roasting On An Open Fire
TTITLE5=The Accords - Joy To The World
TTITLE6=The Regents - Let There Be Peace On Earth
TTITLE7=The Wyndstar Singers - New Star Shining
TTITLE8=Dave Wilcox - If Only
TTITLE9=The Gardners - Are You Expecting Him
EXTD=
EXTT0=
EXTT1=
EXTT2=
EXTT3=
EXTT4=
EXTT5=
EXTT6=
EXTT7=
EXTT8=
EXTT9=
PLAYORDER=
